<svg width="65" height="64" viewBox="0 0 65 64" fill="none" xmlns="http://www.w3.org/2000/svg">
<path d="M32.4 62C48.9685 62 62.4 48.5685 62.4 32C62.4 15.4315 48.9685 2 32.4 2C15.8315 2 2.39999 15.4315 2.39999 32C2.39999 48.5685 15.8315 62 32.4 62Z" fill="#FFDD67"/>
<path d="M20.9 29.6C23.6614 29.6 25.9 27.3614 25.9 24.6C25.9 21.8386 23.6614 19.6 20.9 19.6C18.1386 19.6 15.9 21.8386 15.9 24.6C15.9 27.3614 18.1386 29.6 20.9 29.6Z" fill="#664E27"/>
<path d="M43.9 29.6C46.6614 29.6 48.9 27.3614 48.9 24.6C48.9 21.8386 46.6614 19.6 43.9 19.6C41.1386 19.6 38.9 21.8386 38.9 24.6C38.9 27.3614 41.1386 29.6 43.9 29.6Z" fill="#664E27"/>
<path d="M48.5 37C44.2 43.1 39 44.6 32.4 44.6C25.8 44.6 20.6 43.1 16.3 37C15.7 36.2 14.1 36.7 14.5 37.9C16.8 45.9 24.5 50.6 32.5 50.6C40.5 50.6 48.2 45.9 50.5 37.9C50.7 36.7 49.1 36.2 48.5 37" fill="#664E27"/>
</svg>
